HIERARCHY
ROOT Hips
{
	OFFSET 0.000000 0.000000 0.000000
	CHANNELS 6 Xposition Yposition Zposition Zrotation Yrotation Xrotation 
	JOINT LHipJoint
	{
		OFFSET 0.000000 0.000000 0.000000
		CHANNELS 3 Zrotation Yrotation Xrotation
		JOINT LeftUpLeg
		{
			OFFSET 1.363060 -1.794630 0.839290
			CHANNELS 3 Zrotation Yrotation Xrotation
			JOINT LeftLeg
			{
				OFFSET 2.448110 -6.726130 0.000000
				CHANNELS 3 Zrotation Yrotation Xrotation
				JOINT LeftFoot
				{
					OFFSET 2.562200 -7.039590 0.000000
					CHANNELS 3 Zrotation Yrotation Xrotation
					JOINT LeftToeBase
					{
						OFFSET 0.157640 -0.433110 2.322550
						CHANNELS 3 Zrotation Yrotation Xrotation
						End Site
						{
							OFFSET 0.000000 0.000000 0.000000
						}
					}
				}
			}
		}
	}
	JOINT RHipJoint
	{
		OFFSET 0.000000 0.000000 0.000000
		CHANNELS 3 Zrotation Yrotation Xrotation
		JOINT RightUpLeg
		{
			OFFSET -1.305520 -1.794630 0.839290
			CHANNELS 3 Zrotation Yrotation Xrotation
			JOINT RightLeg
			{
				OFFSET -2.542530 -6.985550 0.000000
				CHANNELS 3 Zrotation Yrotation Xrotation
				JOINT RightFoot
				{
					OFFSET -2.568260 -7.056230 0.000000
					CHANNELS 3 Zrotation Yrotation Xrotation
					JOINT RightToeBase
					{
						OFFSET -0.164730 -0.452590 2.363150
						CHANNELS 3 Zrotation Yrotation Xrotation
						End Site
						{
							OFFSET 0.000000 0.000000 0.000000
						}
					}
				}
			}
		}
	}
	JOINT LowerBack
	{
		OFFSET 0.000000 0.000000 0.000000
		CHANNELS 3 Zrotation Yrotation Xrotation
		JOINT Spine
		{
			OFFSET 0.028270 2.035590 -0.193380
			CHANNELS 3 Zrotation Yrotation Xrotation
			JOINT Spine1
			{
				OFFSET 0.056720 2.048850 -0.042750
				CHANNELS 3 Zrotation Yrotation Xrotation
				JOINT Neck
				{
					OFFSET 0.000000 0.000000 0.000000
					CHANNELS 3 Zrotation Yrotation Xrotation
					JOINT Neck1
					{
						OFFSET -0.054170 1.746240 0.172020
						CHANNELS 3 Zrotation Yrotation Xrotation
						JOINT Head
						{
							OFFSET 0.104070 1.761360 -0.123970
							CHANNELS 3 Zrotation Yrotation Xrotation
							End Site
							{
								OFFSET 0.000000 0.000000 0.000000
							}
						}
					}
				}
				JOINT LeftShoulder
				{
					OFFSET 0.000000 0.000000 0.000000
					CHANNELS 3 Zrotation Yrotation Xrotation
					JOINT LeftArm
					{
						OFFSET 3.362410 1.200890 -0.311210
						CHANNELS 3 Zrotation Yrotation Xrotation
						JOINT LeftForeArm
						{
							OFFSET 4.983000 -0.000000 -0.000000
							CHANNELS 3 Zrotation Yrotation Xrotation
							JOINT LeftHand
							{
								OFFSET 3.483560 -0.000000 -0.000000
								CHANNELS 3 Zrotation Yrotation Xrotation
								JOINT LeftFingerBase
								{
									OFFSET 0.000000 0.000000 0.000000
									CHANNELS 3 Zrotation Yrotation Xrotation
									JOINT LeftHandIndex1
									{
										OFFSET 0.715260 -0.000000 -0.000000
										CHANNELS 3 Zrotation Yrotation Xrotation
										End Site
										{
											OFFSET 0.000000 0.000000 0.000000
										}
									}
								}
								JOINT LThumb
								{
									OFFSET 0.000000 0.000000 0.000000
									CHANNELS 3 Zrotation Yrotation Xrotation
									End Site
									{
										OFFSET 0.000000 0.000000 0.000000
									}
								}
							}
						}
					}
				}
				JOINT RightShoulder
				{
					OFFSET 0.000000 0.000000 0.000000
					CHANNELS 3 Zrotation Yrotation Xrotation
					JOINT RightArm
					{
						OFFSET -3.136600 1.374050 -0.404650
						CHANNELS 3 Zrotation Yrotation Xrotation
						JOINT RightForeArm
						{
							OFFSET -5.241900 -0.000000 -0.000000
							CHANNELS 3 Zrotation Yrotation Xrotation
							JOINT RightHand
							{
								OFFSET -3.444170 -0.000000 -0.000000
								CHANNELS 3 Zrotation Yrotation Xrotation
								JOINT RightFingerBase
								{
									OFFSET 0.000000 0.000000 0.000000
									CHANNELS 3 Zrotation Yrotation Xrotation
									JOINT RightHandIndex1
									{
										OFFSET -0.622530 -0.000000 -0.000000
										CHANNELS 3 Zrotation Yrotation Xrotation
										End Site
										{
											OFFSET 0.000000 0.000000 0.000000
										}
									}
								}
								JOINT RThumb
								{
									OFFSET 0.000000 0.000000 0.000000
									CHANNELS 3 Zrotation Yrotation Xrotation
									End Site
									{
										OFFSET 0.000000 0.000000 0.000000
									}
								}
							}
						}
					}
				}
			}
		}
	}
}
MOTION
Frames: 6
Frame Time: 0.008333
53.386448 17.133914 19.084794 -176.560257 -17.283539 179.758406 2.240387 -1.141370 -1.513457 -17.941153 8.064043 -10.786733 1.290797 10.453616 28.068571 0.483537 1.244899 -9.795125 0.090900 1.944000 5.350900 -3.636655 0.582496 -1.489159 27.660254 -4.366505 -9.159804 -2.277279 -12.625431 35.420989 1.088628 -11.173691 -23.451899 -0.000200 0.095900 -0.263500 7.560497 -0.065827 1.793657 1.332920 -0.453460 -0.784669 -3.448344 -0.039295 6.223651 -0.004817 1.247464 -4.548498 4.504436 0.731993 14.373869 -1.320800 0.906300 5.293300 -1.466743 -1.496218 -0.109117 -81.962121 1.343491 22.318380 9.348170 -22.583583 -3.324198 -1.154418 -1.622420 -20.093679 14.919594 6.338738 2.207400 -7.125000 0.000000 0.000000 -8.733100 37.613300 1.602600 4.913670 2.059084 -0.419964 76.401696 0.552597 28.998147 -12.472309 26.339053 -4.418980 1.791690 0.649999 1.336920 -20.302267 -6.760976 2.996000 7.125000 0.000000 0.000000 4.051800 -37.944200 0.705200 
53.368458 17.132514 19.080054 -176.625543 -17.443332 179.674549 2.240666 -1.128714 -1.495579 -18.057963 8.108902 -10.661467 1.276056 10.430345 28.000323 0.514532 1.085370 -9.654727 0.080900 1.834200 5.047600 -3.654947 0.584151 -1.489528 27.550951 -4.413346 -9.224484 -2.364060 -12.716832 35.756504 1.398072 -12.123231 -23.316732 -0.018200 0.871300 -2.394800 7.344863 -0.120277 2.002149 1.331940 -0.481731 -0.814638 -3.351857 -0.072867 5.959219 -0.166426 1.255657 -4.360536 4.631133 0.723228 14.260534 -1.216800 0.892800 5.192000 -1.442772 -1.579850 -0.070178 -82.796437 0.453281 20.489462 8.683718 -21.551060 -3.037122 -1.201810 -1.516409 -18.123817 14.848644 6.211521 2.138900 -7.125000 0.000000 0.000000 -8.787900 37.415200 1.655900 4.862085 2.106451 -0.430231 76.413809 0.378109 29.122612 -12.664704 26.539478 -4.497760 1.768327 0.640973 1.427429 -20.155279 -6.636064 2.918900 7.125000 0.000000 0.000000 4.184200 -37.793900 0.743800 
53.351330 17.129605 19.075422 -176.733230 -17.607282 179.595254 2.247288 -1.120508 -1.484597 -18.205131 8.304899 -10.555702 1.259678 10.397788 27.912410 0.556567 0.863556 -9.437977 0.079800 1.822500 5.015300 -3.669210 0.576191 -1.493180 27.386292 -4.456982 -9.274373 -2.456947 -12.828573 36.142221 1.188696 -11.543499 -23.512660 -0.006000 0.498600 -1.370100 7.066840 -0.136915 2.164487 1.316164 -0.475014 -0.829666 -3.252738 -0.073461 5.777276 -0.234896 1.243982 -4.177374 4.738654 0.686266 14.152903 -1.132900 0.868700 5.094200 -1.448754 -1.562965 -0.106875 -82.202803 1.748485 22.093364 9.365780 -22.614561 -3.334035 -1.135008 -1.605245 -19.605099 14.671558 6.355297 2.174000 -7.125000 0.000000 0.000000 -8.974000 37.617300 1.646700 4.822904 2.076135 -0.430171 76.457590 0.267314 29.240367 -12.843750 26.729973 -4.573085 1.754448 0.626589 1.387557 -20.131950 -6.484612 2.847600 7.125000 0.000000 0.000000 4.197800 -37.613500 0.764800 
53.331940 17.127990 19.071221 -176.812406 -17.772257 179.549888 2.256669 -1.116160 -1.484657 -18.360676 8.314205 -10.417200 1.241075 10.369281 27.822311 0.545288 0.900306 -9.402641 0.077300 1.794100 4.936900 -3.684674 0.578427 -1.509632 27.244078 -4.477724 -9.357312 -2.549327 -12.938591 36.517679 1.146608 -11.450711 -23.587471 -0.008200 0.584300 -1.605500 6.886405 -0.158000 2.157361 1.300864 -0.495580 -0.813634 -3.282652 -0.085455 5.876494 -0.179525 1.218745 -4.282565 4.745181 0.656264 14.139209 -1.141700 0.858500 5.103100 -1.472653 -1.566878 -0.091366 -82.141311 1.391513 22.142040 9.199860 -22.378320 -3.256866 -1.166519 -1.597906 -19.578025 14.903231 6.314111 2.193200 -7.125000 0.000000 0.000000 -8.747200 37.573800 1.613800 4.809581 2.078444 -0.430391 76.511110 0.329985 29.513778 -13.047006 26.954659 -4.660150 1.768048 0.622427 1.052832 -20.425635 -6.439776 2.868100 7.125000 0.000000 0.000000 3.927200 -37.569500 0.719600 
53.313735 17.125404 19.066912 -176.884524 -17.933414 179.489692 2.264051 -1.109495 -1.479404 -18.490497 8.384989 -10.295805 1.223679 10.339108 27.734292 0.557919 0.823108 -9.293330 0.074200 1.757000 4.834400 -3.701577 0.578412 -1.521193 27.117764 -4.490191 -9.430305 -2.643987 -13.049722 36.900107 1.104204 -11.360237 -23.667430 -0.010200 0.651800 -1.791200 6.679677 -0.180941 2.226516 1.287968 -0.509509 -0.811960 -3.261579 -0.097132 5.851560 -0.174535 1.201361 -4.270781 4.795858 0.625063 14.085634 -1.113500 0.843800 5.068100 -1.484541 -1.576320 -0.086580 -82.047307 1.403716 22.314113 9.200521 -22.390244 -3.256690 -1.167259 -1.604041 -19.650331 14.912650 6.334438 2.202100 -7.125000 0.000000 0.000000 -8.739300 37.599000 1.606800 4.784975 2.077890 -0.431662 76.562857 0.314502 29.710648 -13.240208 27.162425 -4.743104 1.769707 0.612703 0.894317 -20.583549 -6.350264 2.848900 7.125000 0.000000 0.000000 3.779800 -37.468100 0.701900 
53.295852 17.122603 19.062818 -176.952228 -18.096667 179.438424 2.271605 -1.103587 -1.475507 -18.613906 8.455041 -10.182224 1.205657 10.307992 27.642614 0.570785 0.744609 -9.182369 0.070900 1.717600 4.725700 -3.719255 0.579510 -1.534479 26.998456 -4.482420 -9.508302 -2.740478 -13.163692 37.289617 1.054586 -11.248517 -23.751949 -0.012400 0.719700 -1.977900 6.474067 -0.202631 2.274181 1.275149 -0.524887 -0.806863 -3.244724 -0.109360 5.855904 -0.152331 1.183137 -4.281152 4.839071 0.594341 14.039043 -1.094200 0.830500 5.040300 -1.499219 -1.582127 -0.081368 -81.911034 1.394022 22.532754 9.209748 -22.415982 -3.260433 -1.166711 -1.613563 -19.779238 14.916805 6.363941 2.213600 -7.125000 0.000000 0.000000 -8.736900 37.635400 1.598500 4.764459 2.075204 -0.432100 76.616440 0.315895 29.908132 -13.430231 27.366385 -4.825308 1.774133 0.601287 0.739842 -20.779291 -6.255439 2.831900 7.125000 0.000000 0.000000 3.597700 -37.361400 0.677400 
